<?xml version="1.0" encoding="UTF-8"?>
<!DOCTYPE svg PUBLIC "-//W3C//DTD SVG 1.1//EN" "http://www.w3.org/Graphics/SVG/1.1/DTD/svg11.dtd">
<svg xmlns="http://www.w3.org/2000/svg" version="1.1" width="84px" height="79px" style="shape-rendering:geometricPrecision; text-rendering:geometricPrecision; image-rendering:optimizeQuality; fill-rule:evenodd; clip-rule:evenodd" xmlns:xlink="http://www.w3.org/1999/xlink">
<g><path style="opacity:0.992" fill="#627e0d" d="M 42.5,39.5 C 41.2502,39.4226 40.4169,38.756 40,37.5C 39.3333,38.8333 38.6667,40.1667 38,41.5C 37.3333,40.1667 36.6667,40.1667 36,41.5C 35.5376,36.6217 33.0376,35.2883 28.5,37.5C 27.1667,36.5 25.8333,35.5 24.5,34.5C 23.8165,34.8627 23.1499,35.1961 22.5,35.5C 20.1914,35.0124 18.1914,34.0124 16.5,32.5C 14.9785,26.4161 17.3119,24.0827 23.5,25.5C 24.6956,25.1543 24.6956,24.6543 23.5,24C 24.8333,23.6667 26.1667,23.3333 27.5,23C 27.1667,22.6667 26.8333,22.3333 26.5,22C 27.8989,21.4054 29.2322,21.5721 30.5,22.5C 32.3414,20.8298 34.508,19.8298 37,19.5C 37.9454,19.9054 38.6121,20.572 39,21.5C 40.6665,20.6598 40.8331,21.1598 39.5,23C 40.5,23.6667 41.5,23.6667 42.5,23C 42.1667,22.6667 41.8333,22.3333 41.5,22C 44.3315,21.7879 46.9982,21.6213 49.5,21.5C 51.4321,22.1455 52.5988,23.4788 53,25.5C 53.8928,24.2888 54.7261,24.2888 55.5,25.5C 53.9936,26.7472 52.4936,26.7472 51,25.5C 49.1107,29.0552 46.2773,31.5552 42.5,33C 43.1667,33.3333 43.8333,33.6667 44.5,34C 44.9512,35.9895 44.2845,37.8228 42.5,39.5 Z"/></g>
<g><path style="opacity:1" fill="#779831" d="M 68.5,36.5 C 67.5041,36.4142 66.6708,36.7476 66,37.5C 65.2599,36.2506 65.4265,35.2506 66.5,34.5C 68.0079,31.9201 67.3413,29.9201 64.5,28.5C 62.4806,30.4646 60.4806,30.6312 58.5,29C 59.448,28.5172 60.448,28.3505 61.5,28.5C 61.5,27.5 61.5,26.5 61.5,25.5C 60.1266,25.3433 58.7932,25.51 57.5,26C 56.8878,27.3033 56.5545,28.4699 56.5,29.5C 55.7425,28.1886 54.7425,27.6886 53.5,28C 53.8333,28.3333 54.1667,28.6667 54.5,29C 53.2298,29.8996 52.2298,31.0663 51.5,32.5C 50.8333,31.8333 50.1667,31.1667 49.5,30.5C 48.7657,32.8149 47.4324,34.6482 45.5,36C 46.1929,37.6837 46.5263,39.1837 46.5,40.5C 47.3984,41.1577 48.3984,41.8243 49.5,42.5C 48.2086,43.5272 48.2086,44.5272 49.5,45.5C 49.5,46.1667 49.1667,46.5 48.5,46.5C 46.8527,43.8536 44.8527,41.5202 42.5,39.5C 44.2845,37.8228 44.9512,35.9895 44.5,34C 43.8333,33.6667 43.1667,33.3333 42.5,33C 46.2773,31.5552 49.1107,29.0552 51,25.5C 52.4936,26.7472 53.9936,26.7472 55.5,25.5C 54.7261,24.2888 53.8928,24.2888 53,25.5C 52.5988,23.4788 51.4321,22.1455 49.5,21.5C 46.9982,21.6213 44.3315,21.7879 41.5,22C 41.8333,22.3333 42.1667,22.6667 42.5,23C 41.5,23.6667 40.5,23.6667 39.5,23C 40.8331,21.1598 40.6665,20.6598 39,21.5C 38.6121,20.572 37.9454,19.9054 37,19.5C 34.508,19.8298 32.3414,20.8298 30.5,22.5C 29.2322,21.5721 27.8989,21.4054 26.5,22C 26.8333,22.3333 27.1667,22.6667 27.5,23C 26.1667,23.3333 24.8333,23.6667 23.5,24C 24.6956,24.6543 24.6956,25.1543 23.5,25.5C 17.3119,24.0827 14.9785,26.4161 16.5,32.5C 14.9519,32.8212 14.2852,33.8212 14.5,35.5C 13.1667,35.5 11.8333,35.5 10.5,35.5C 7.37325,36.6873 6.70658,35.6873 8.5,32.5C 8.08138,31.3279 7.41471,30.3279 6.5,29.5C 7.94793,28.6461 9.28126,27.6461 10.5,26.5C 11.086,26.7093 11.586,27.0426 12,27.5C 13.5,26 15,24.5 16.5,23C 20.1931,21.9471 24.1931,20.6138 28.5,19C 30.2551,15.1897 32.5884,14.6897 35.5,17.5C 40.7585,16.6541 46.0918,16.3208 51.5,16.5C 51.5,17.8333 51.5,19.1667 51.5,20.5C 58.6077,20.7203 64.2743,23.5536 68.5,29C 69.448,29.4828 70.448,29.6495 71.5,29.5C 71.8633,31.9115 70.8633,33.4115 68.5,34C 69.624,34.2492 70.624,34.7492 71.5,35.5C 70.6063,35.5173 69.6063,35.8506 68.5,36.5 Z"/></g>
<g><path style="opacity:1" fill="#5d770b" d="M 66.5,34.5 C 66.631,33.7611 66.4643,33.0944 66,32.5C 65.3333,33.8333 64.6667,33.8333 64,32.5C 62.9698,34.7764 61.4698,35.4431 59.5,34.5C 58.8429,38.903 57.0096,39.5697 54,36.5C 53.3333,39.1667 52.6667,39.1667 52,36.5C 50.2258,37.965 48.3925,39.2983 46.5,40.5C 46.5263,39.1837 46.1929,37.6837 45.5,36C 47.4324,34.6482 48.7657,32.8149 49.5,30.5C 50.1667,31.1667 50.8333,31.8333 51.5,32.5C 52.2298,31.0663 53.2298,29.8996 54.5,29C 54.1667,28.6667 53.8333,28.3333 53.5,28C 54.7425,27.6886 55.7425,28.1886 56.5,29.5C 56.5545,28.4699 56.8878,27.3033 57.5,26C 58.7932,25.51 60.1266,25.3433 61.5,25.5C 61.5,26.5 61.5,27.5 61.5,28.5C 60.448,28.3505 59.448,28.5172 58.5,29C 60.4806,30.6312 62.4806,30.4646 64.5,28.5C 67.3413,29.9201 68.0079,31.9201 66.5,34.5 Z"/></g>
<g><path style="opacity:1" fill="#7e8824" d="M 66.5,34.5 C 65.4265,35.2506 65.2599,36.2506 66,37.5C 66.6708,36.7476 67.5041,36.4142 68.5,36.5C 68.4431,37.609 68.1098,38.609 67.5,39.5C 66.8501,39.1961 66.1835,38.8627 65.5,38.5C 64.8243,39.6016 64.1577,40.6016 63.5,41.5C 59.995,40.8755 57.1617,41.8755 55,44.5C 52.8716,43.1449 51.0383,43.4783 49.5,45.5C 48.2086,44.5272 48.2086,43.5272 49.5,42.5C 48.3984,41.8243 47.3984,41.1577 46.5,40.5C 48.3925,39.2983 50.2258,37.965 52,36.5C 52.6667,39.1667 53.3333,39.1667 54,36.5C 57.0096,39.5697 58.8429,38.903 59.5,34.5C 61.4698,35.4431 62.9698,34.7764 64,32.5C 64.6667,33.8333 65.3333,33.8333 66,32.5C 66.4643,33.0944 66.631,33.7611 66.5,34.5 Z"/></g>
<g><path style="opacity:1" fill="#e3e3e1" d="M 13.5,38.5 C 20.1179,41.4979 27.1179,43.4979 34.5,44.5C 37.2854,46.0951 40.2854,47.0951 43.5,47.5C 45.2922,48.3091 47.2922,48.8091 49.5,49C 48.5308,53.7367 48.1975,58.57 48.5,63.5C 44.4616,63.0422 40.4616,62.3755 36.5,61.5C 28.9988,59.9574 21.6655,57.7907 14.5,55C 12.8765,49.5342 12.5432,44.0342 13.5,38.5 Z"/></g>
<g><path style="opacity:1" fill="#b0b177" d="M 16.5,32.5 C 18.1914,34.0124 20.1914,35.0124 22.5,35.5C 23.8098,37.1477 25.1431,38.8144 26.5,40.5C 28.9367,38.4244 31.6034,38.0911 34.5,39.5C 33.9478,41.0026 33.9478,42.6693 34.5,44.5C 27.1179,43.4979 20.1179,41.4979 13.5,38.5C 12.3065,37.7281 11.3065,36.7281 10.5,35.5C 11.8333,35.5 13.1667,35.5 14.5,35.5C 14.2852,33.8212 14.9519,32.8212 16.5,32.5 Z"/></g>
<g><path style="opacity:1" fill="#9d9f42" d="M 42.5,39.5 C 44.8527,41.5202 46.8527,43.8536 48.5,46.5C 48.5,46.8333 48.5,47.1667 48.5,47.5C 46.8333,47.5 45.1667,47.5 43.5,47.5C 40.2854,47.0951 37.2854,46.0951 34.5,44.5C 33.9478,42.6693 33.9478,41.0026 34.5,39.5C 31.6034,38.0911 28.9367,38.4244 26.5,40.5C 25.1431,38.8144 23.8098,37.1477 22.5,35.5C 23.1499,35.1961 23.8165,34.8627 24.5,34.5C 25.8333,35.5 27.1667,36.5 28.5,37.5C 33.0376,35.2883 35.5376,36.6217 36,41.5C 36.6667,40.1667 37.3333,40.1667 38,41.5C 38.6667,40.1667 39.3333,38.8333 40,37.5C 40.4169,38.756 41.2502,39.4226 42.5,39.5 Z"/></g>
<g><path style="opacity:1" fill="#645f31" d="M 63.5,41.5 C 61.1619,42.6817 59.1619,44.3483 57.5,46.5C 56.7065,46.0688 55.8732,45.7355 55,45.5C 52.9534,46.6094 50.7867,47.2761 48.5,47.5C 48.5,47.1667 48.5,46.8333 48.5,46.5C 49.1667,46.5 49.5,46.1667 49.5,45.5C 51.0383,43.4783 52.8716,43.1449 55,44.5C 57.1617,41.8755 59.995,40.8755 63.5,41.5 Z"/></g>
<g><path style="opacity:1" fill="#ceccc8" d="M 67.5,39.5 C 68.1174,39.6107 68.6174,39.944 69,40.5C 69.8512,45.9704 69.3512,51.3037 67.5,56.5C 60.7101,59.646 53.8768,62.646 47,65.5C 43.3117,64.4407 39.8117,63.1074 36.5,61.5C 40.4616,62.3755 44.4616,63.0422 48.5,63.5C 48.1975,58.57 48.5308,53.7367 49.5,49C 47.2922,48.8091 45.2922,48.3091 43.5,47.5C 45.1667,47.5 46.8333,47.5 48.5,47.5C 50.7867,47.2761 52.9534,46.6094 55,45.5C 55.8732,45.7355 56.7065,46.0688 57.5,46.5C 59.1619,44.3483 61.1619,42.6817 63.5,41.5C 64.1577,40.6016 64.8243,39.6016 65.5,38.5C 66.1835,38.8627 66.8501,39.1961 67.5,39.5 Z"/></g>
</svg>
